<?xml version="1.0" standalone="no"?>
<!DOCTYPE svg PUBLIC "-//W3C//DTD SVG 20010904//EN"
 "http://www.w3.org/TR/2001/REC-SVG-20010904/DTD/svg10.dtd">
<svg version="1.0" xmlns="http://www.w3.org/2000/svg"
 width="1860.000000pt" height="548.000000pt" viewBox="0 0 1860.000000 548.000000"
 preserveAspectRatio="xMidYMid meet">
<metadata>
Created by potrace 1.16, written by Peter Selinger 2001-2019
</metadata>
<g transform="translate(0.000000,548.000000) scale(0.100000,-0.100000)"
fill="#000000" stroke="none">
<path d="M0 2740 l0 -2740 9300 0 9300 0 0 2740 0 2740 -9300 0 -9300 0 0
-2740z m13370 -10 l0 -2020 -4020 0 -4020 0 0 2020 0 2020 4020 0 4020 0 0
-2020z"/>
<path d="M5352 3953 l3 -778 48 0 47 0 -2 -400 -3 -400 -48 0 -47 0 0 -822 0
-823 4000 0 4000 0 0 725 0 725 -50 0 -50 0 0 400 0 400 50 0 50 0 0 875 0
875 -4000 0 -4000 0 2 -777z m4487 -1577 c91 -47 50 -186 -55 -186 -37 0 -94
60 -94 97 1 79 78 125 149 89z"/>
</g>
</svg>
