<?xml version="1.0" standalone="no"?>
<!DOCTYPE svg PUBLIC "-//W3C//DTD SVG 20010904//EN"
 "http://www.w3.org/TR/2001/REC-SVG-20010904/DTD/svg10.dtd">
<svg version="1.0" xmlns="http://www.w3.org/2000/svg"
 width="1860.000000pt" height="548.000000pt" viewBox="0 0 1860.000000 548.000000"
 preserveAspectRatio="xMidYMid meet">
<metadata>
Created by potrace 1.16, written by Peter Selinger 2001-2019
</metadata>
<g transform="translate(0.000000,548.000000) scale(0.100000,-0.100000)"
fill="#000000" stroke="none">
<path d="M0 2740 l0 -2740 9300 0 9300 0 0 2740 0 2740 -9300 0 -9300 0 0
-2740z m13370 -10 l0 -2020 -4020 0 -4020 0 0 2020 0 2020 4020 0 4020 0 0
-2020z"/>
<path d="M5350 3945 l0 -785 50 0 50 0 0 -400 0 -400 -50 0 -50 0 0 -815 0
-815 4000 0 4000 0 0 485 c0 383 -3 486 -12 484 -7 -1 -30 -1 -50 0 l-38 1 0
401 0 401 50 -4 50 -3 0 1118 0 1117 -4000 0 -4000 0 0 -785z m3130 -2052 c66
-38 66 -128 0 -166 -50 -30 -110 -15 -136 34 -47 93 48 185 136 132z"/>
</g>
</svg>
