<?xml version="1.0" standalone="no"?>
<!DOCTYPE svg PUBLIC "-//W3C//DTD SVG 20010904//EN"
 "http://www.w3.org/TR/2001/REC-SVG-20010904/DTD/svg10.dtd">
<svg version="1.0" xmlns="http://www.w3.org/2000/svg"
 width="1860.000000pt" height="548.000000pt" viewBox="0 0 1860.000000 548.000000"
 preserveAspectRatio="xMidYMid meet">
<metadata>
Created by potrace 1.16, written by Peter Selinger 2001-2019
</metadata>
<g transform="translate(0.000000,548.000000) scale(0.100000,-0.100000)"
fill="#000000" stroke="none">
<path d="M0 2740 l0 -2740 9300 0 9300 0 0 2740 0 2740 -9300 0 -9300 0 0
-2740z m13370 -10 l0 -2020 -4020 0 -4020 0 0 2020 0 2020 4020 0 4020 0 0
-2020z"/>
<path d="M5352 3923 l3 -808 45 0 45 0 0 -400 0 -400 -48 0 -47 0 0 -792 0
-793 4000 0 4000 0 0 650 0 650 -50 0 -50 0 0 400 0 400 50 0 50 0 0 950 0
950 -4000 0 -4000 0 2 -807z m1288 -30 c86 -51 49 -183 -51 -183 -30 0 -76 30
-88 57 -41 91 54 177 139 126z"/>
</g>
</svg>
