<?xml version="1.0" standalone="no"?>
<!DOCTYPE svg PUBLIC "-//W3C//DTD SVG 20010904//EN"
 "http://www.w3.org/TR/2001/REC-SVG-20010904/DTD/svg10.dtd">
<svg version="1.0" xmlns="http://www.w3.org/2000/svg"
 width="1860.000000pt" height="548.000000pt" viewBox="0 0 1860.000000 548.000000"
 preserveAspectRatio="xMidYMid meet">
<metadata>
Created by potrace 1.16, written by Peter Selinger 2001-2019
</metadata>
<g transform="translate(0.000000,548.000000) scale(0.100000,-0.100000)"
fill="#000000" stroke="none">
<path d="M0 2740 l0 -2740 9300 0 9300 0 0 2740 0 2740 -9300 0 -9300 0 0
-2740z m13370 -10 l0 -2020 -4020 0 -4020 0 0 2020 0 2020 4020 0 4020 0 0
-2020z"/>
<path d="M5350 3950 l0 -780 50 0 50 0 0 -400 0 -400 -50 0 -50 0 0 -820 0
-820 4000 0 4000 0 0 705 0 705 -50 0 -50 0 0 400 0 400 50 0 50 0 0 895 0
895 -4000 0 -4000 0 0 -780z m2250 663 c67 -39 64 -140 -5 -171 -51 -23 -107
-7 -131 39 -47 93 48 185 136 132z"/>
</g>
</svg>
