<?xml version="1.0" standalone="no"?>
<!DOCTYPE svg PUBLIC "-//W3C//DTD SVG 20010904//EN"
 "http://www.w3.org/TR/2001/REC-SVG-20010904/DTD/svg10.dtd">
<svg version="1.0" xmlns="http://www.w3.org/2000/svg"
 width="1860.000000pt" height="548.000000pt" viewBox="0 0 1860.000000 548.000000"
 preserveAspectRatio="xMidYMid meet">
<metadata>
Created by potrace 1.16, written by Peter Selinger 2001-2019
</metadata>
<g transform="translate(0.000000,548.000000) scale(0.100000,-0.100000)"
fill="#000000" stroke="none">
<path d="M0 2740 l0 -2740 9300 0 9300 0 0 2740 0 2740 -9300 0 -9300 0 0
-2740z m13370 -10 l0 -2020 -4020 0 -4020 0 0 2020 0 2020 4020 0 4020 0 0
-2020z"/>
<path d="M5350 3930 l0 -800 50 0 50 0 0 -400 0 -400 -50 0 -50 0 0 -800 0
-800 4000 0 4000 0 0 205 0 205 -50 0 -50 0 0 405 0 404 50 -6 50 -6 0 1397 0
1396 -4000 0 -4000 0 0 -800z m2506 -2694 c37 -37 43 -70 20 -115 -35 -66
-137 -66 -172 0 -36 71 10 148 90 149 19 0 39 -11 62 -34z"/>
</g>
</svg>
