<?xml version="1.0" standalone="no"?>
<!DOCTYPE svg PUBLIC "-//W3C//DTD SVG 20010904//EN"
 "http://www.w3.org/TR/2001/REC-SVG-20010904/DTD/svg10.dtd">
<svg version="1.0" xmlns="http://www.w3.org/2000/svg"
 width="1860.000000pt" height="548.000000pt" viewBox="0 0 1860.000000 548.000000"
 preserveAspectRatio="xMidYMid meet">
<metadata>
Created by potrace 1.16, written by Peter Selinger 2001-2019
</metadata>
<g transform="translate(0.000000,548.000000) scale(0.100000,-0.100000)"
fill="#000000" stroke="none">
<path d="M0 2740 l0 -2740 9300 0 9300 0 0 2740 0 2740 -9300 0 -9300 0 0
-2740z m13370 -10 l0 -2020 -4020 0 -4020 0 0 2020 0 2020 4020 0 4020 0 0
-2020z"/>
<path d="M5350 3933 l0 -798 47 0 48 0 0 -400 0 -400 -47 -3 -48 -3 0 -800 0
-799 4000 0 4000 0 0 520 0 520 -50 0 -50 0 0 400 0 400 43 1 c23 1 45 1 50 0
4 0 7 485 7 1079 l0 1080 -4000 0 -4000 0 0 -797z m5370 200 c108 -63 21 -224
-93 -172 -13 6 -31 23 -40 39 -53 90 43 186 133 133z"/>
</g>
</svg>
