<?xml version="1.0" standalone="no"?>
<!DOCTYPE svg PUBLIC "-//W3C//DTD SVG 20010904//EN"
 "http://www.w3.org/TR/2001/REC-SVG-20010904/DTD/svg10.dtd">
<svg version="1.0" xmlns="http://www.w3.org/2000/svg"
 width="1860.000000pt" height="548.000000pt" viewBox="0 0 1860.000000 548.000000"
 preserveAspectRatio="xMidYMid meet">
<metadata>
Created by potrace 1.16, written by Peter Selinger 2001-2019
</metadata>
<g transform="translate(0.000000,548.000000) scale(0.100000,-0.100000)"
fill="#000000" stroke="none">
<path d="M0 2740 l0 -2740 9300 0 9300 0 0 2740 0 2740 -9300 0 -9300 0 0
-2740z m13370 -10 l0 -2020 -4020 0 -4020 0 0 2020 0 2020 4020 0 4020 0 0
-2020z"/>
<path d="M5350 3990 l0 -740 50 0 50 0 0 -400 0 -400 -50 0 -50 0 0 -860 0
-860 4000 0 c3700 0 4000 1 4000 16 0 14 -8 16 -50 11 l-50 -6 0 399 0 400 50
0 50 0 0 1590 0 1590 -4000 0 -4000 0 0 -740z m1690 -2657 c67 -39 64 -140 -5
-171 -51 -23 -107 -7 -131 39 -26 51 -12 103 34 132 35 21 67 21 102 0z"/>
</g>
</svg>
