<?xml version="1.0" standalone="no"?>
<!DOCTYPE svg PUBLIC "-//W3C//DTD SVG 20010904//EN"
 "http://www.w3.org/TR/2001/REC-SVG-20010904/DTD/svg10.dtd">
<svg version="1.0" xmlns="http://www.w3.org/2000/svg"
 width="1860.000000pt" height="548.000000pt" viewBox="0 0 1860.000000 548.000000"
 preserveAspectRatio="xMidYMid meet">
<metadata>
Created by potrace 1.16, written by Peter Selinger 2001-2019
</metadata>
<g transform="translate(0.000000,548.000000) scale(0.100000,-0.100000)"
fill="#000000" stroke="none">
<path d="M0 2740 l0 -2740 9300 0 9300 0 0 2740 0 2740 -9300 0 -9300 0 0
-2740z m13370 -10 l0 -2020 -4020 0 -4020 0 0 2020 0 2020 4020 0 4020 0 0
-2020z"/>
<path d="M5350 3925 l0 -805 50 0 50 0 0 -400 0 -400 -50 0 -50 0 0 -795 0
-795 4000 0 4000 0 0 760 0 760 -50 0 -50 0 0 400 0 400 50 0 50 0 0 840 0
840 -4000 0 -4000 0 0 -805z m4970 -2032 c108 -63 21 -224 -93 -172 -27 12
-57 58 -57 88 0 50 48 100 98 101 13 0 37 -7 52 -17z"/>
</g>
</svg>
