<?xml version="1.0" standalone="no"?>
<!DOCTYPE svg PUBLIC "-//W3C//DTD SVG 20010904//EN"
 "http://www.w3.org/TR/2001/REC-SVG-20010904/DTD/svg10.dtd">
<svg version="1.0" xmlns="http://www.w3.org/2000/svg"
 width="1860.000000pt" height="548.000000pt" viewBox="0 0 1860.000000 548.000000"
 preserveAspectRatio="xMidYMid meet">
<metadata>
Created by potrace 1.16, written by Peter Selinger 2001-2019
</metadata>
<g transform="translate(0.000000,548.000000) scale(0.100000,-0.100000)"
fill="#000000" stroke="none">
<path d="M0 2740 l0 -2740 9300 0 9300 0 0 2740 0 2740 -9300 0 -9300 0 0
-2740z m13370 -10 l0 -2020 -4020 0 -4020 0 0 2020 0 2020 4020 0 4020 0 0
-2020z"/>
<path d="M5350 4015 l0 -715 50 0 50 0 0 -292 c1 -249 3 -289 14 -269 27 49
86 64 136 34 111 -65 14 -231 -99 -169 -13 7 -30 24 -37 37 -12 22 -13 15 -14
-58 l0 -83 -50 0 -50 0 0 -885 0 -885 4000 0 4000 0 0 605 0 605 -50 0 -50 0
0 400 0 400 50 0 50 0 0 995 0 995 -4000 0 -4000 0 0 -715z"/>
</g>
</svg>
