<?xml version="1.0" standalone="no"?>
<!DOCTYPE svg PUBLIC "-//W3C//DTD SVG 20010904//EN"
 "http://www.w3.org/TR/2001/REC-SVG-20010904/DTD/svg10.dtd">
<svg version="1.0" xmlns="http://www.w3.org/2000/svg"
 width="1860.000000pt" height="548.000000pt" viewBox="0 0 1860.000000 548.000000"
 preserveAspectRatio="xMidYMid meet">
<metadata>
Created by potrace 1.16, written by Peter Selinger 2001-2019
</metadata>
<g transform="translate(0.000000,548.000000) scale(0.100000,-0.100000)"
fill="#000000" stroke="none">
<path d="M0 2740 l0 -2740 9300 0 9300 0 0 2740 0 2740 -9300 0 -9300 0 0
-2740z m13370 -10 l0 -2020 -4020 0 -4020 0 0 2020 0 2020 4020 0 4020 0 0
-2020z"/>
<path d="M5350 3940 l0 -790 50 0 50 0 0 -400 0 -400 -50 0 -50 0 0 -810 0
-810 4000 0 4000 0 0 725 0 725 -50 0 -50 0 0 400 0 400 50 0 50 0 0 875 0
875 -4000 0 -4000 0 0 -790z m4009 -1084 c49 -26 64 -86 34 -136 -38 -66 -128
-66 -166 0 -53 88 39 183 132 136z"/>
</g>
</svg>
