<?xml version="1.0" standalone="no"?>
<!DOCTYPE svg PUBLIC "-//W3C//DTD SVG 20010904//EN"
 "http://www.w3.org/TR/2001/REC-SVG-20010904/DTD/svg10.dtd">
<svg version="1.0" xmlns="http://www.w3.org/2000/svg"
 width="1860.000000pt" height="548.000000pt" viewBox="0 0 1860.000000 548.000000"
 preserveAspectRatio="xMidYMid meet">
<metadata>
Created by potrace 1.16, written by Peter Selinger 2001-2019
</metadata>
<g transform="translate(0.000000,548.000000) scale(0.100000,-0.100000)"
fill="#000000" stroke="none">
<path d="M0 2740 l0 -2740 9300 0 9300 0 0 2740 0 2740 -9300 0 -9300 0 0
-2740z m13370 -10 l0 -2020 -4020 0 -4020 0 0 2020 0 2020 4020 0 4020 0 0
-2020z"/>
<path d="M5350 3925 l0 -805 50 0 50 0 0 -400 0 -400 -50 0 -50 0 0 -795 0
-795 4000 0 4000 0 -2 733 -3 732 -24 -3 c-13 -2 -34 -1 -47 2 l-24 6 0 401 0
401 38 -2 c20 -1 43 -2 50 -1 9 1 12 181 12 866 l0 865 -4000 0 -4000 0 0
-805z m5130 -2192 c59 -34 66 -99 16 -149 -50 -50 -115 -43 -149 16 -53 90 43
186 133 133z"/>
</g>
</svg>
