<?xml version="1.0" standalone="no"?>
<!DOCTYPE svg PUBLIC "-//W3C//DTD SVG 20010904//EN"
 "http://www.w3.org/TR/2001/REC-SVG-20010904/DTD/svg10.dtd">
<svg version="1.0" xmlns="http://www.w3.org/2000/svg"
 width="1860.000000pt" height="548.000000pt" viewBox="0 0 1860.000000 548.000000"
 preserveAspectRatio="xMidYMid meet">
<metadata>
Created by potrace 1.16, written by Peter Selinger 2001-2019
</metadata>
<g transform="translate(0.000000,548.000000) scale(0.100000,-0.100000)"
fill="#000000" stroke="none">
<path d="M0 2740 l0 -2740 9300 0 9300 0 0 2740 0 2740 -9300 0 -9300 0 0
-2740z m13370 -10 l0 -2020 -4020 0 -4020 0 0 2020 0 2020 4020 0 4020 0 0
-2020z"/>
<path d="M5352 3953 l3 -778 48 -3 47 -3 0 -400 0 -399 -50 0 -50 0 0 -820 0
-820 4000 0 4000 0 0 660 0 660 -35 1 c-19 1 -41 2 -47 3 -10 1 -14 89 -16
399 l-2 397 50 0 50 0 0 940 0 940 -4000 0 -4000 0 2 -777z m808 -540 c108
-63 21 -224 -93 -172 -13 6 -31 23 -40 39 -53 90 43 186 133 133z"/>
</g>
</svg>
