<?xml version="1.0" standalone="no"?>
<!DOCTYPE svg PUBLIC "-//W3C//DTD SVG 20010904//EN"
 "http://www.w3.org/TR/2001/REC-SVG-20010904/DTD/svg10.dtd">
<svg version="1.0" xmlns="http://www.w3.org/2000/svg"
 width="1860.000000pt" height="548.000000pt" viewBox="0 0 1860.000000 548.000000"
 preserveAspectRatio="xMidYMid meet">
<metadata>
Created by potrace 1.16, written by Peter Selinger 2001-2019
</metadata>
<g transform="translate(0.000000,548.000000) scale(0.100000,-0.100000)"
fill="#000000" stroke="none">
<path d="M0 2740 l0 -2740 9300 0 9300 0 0 2740 0 2740 -9300 0 -9300 0 0
-2740z m13370 -10 l0 -2020 -4020 0 -4020 0 0 2020 0 2020 4020 0 4020 0 0
-2020z"/>
<path d="M5350 3986 l0 -745 48 -3 47 -3 3 -397 2 -397 -47 -3 -48 -3 -3 -853
-2 -852 4000 0 4000 0 0 55 0 55 -50 0 -50 0 0 400 0 400 50 0 50 0 0 1545 0
1545 -4000 0 -4000 0 0 -744z m1529 -2490 c66 -35 67 -131 1 -169 -50 -30
-110 -15 -136 34 -47 91 44 182 135 135z"/>
</g>
</svg>
