<?xml version="1.0" standalone="no"?>
<!DOCTYPE svg PUBLIC "-//W3C//DTD SVG 20010904//EN"
 "http://www.w3.org/TR/2001/REC-SVG-20010904/DTD/svg10.dtd">
<svg version="1.0" xmlns="http://www.w3.org/2000/svg"
 width="1860.000000pt" height="548.000000pt" viewBox="0 0 1860.000000 548.000000"
 preserveAspectRatio="xMidYMid meet">
<metadata>
Created by potrace 1.16, written by Peter Selinger 2001-2019
</metadata>
<g transform="translate(0.000000,548.000000) scale(0.100000,-0.100000)"
fill="#000000" stroke="none">
<path d="M0 2740 l0 -2740 9300 0 9300 0 0 2740 0 2740 -9300 0 -9300 0 0
-2740z m13370 -10 l0 -2020 -4020 0 -4020 0 0 2020 0 2020 4020 0 4020 0 0
-2020z"/>
<path d="M5350 4020 l0 -710 50 0 50 0 0 -400 0 -400 -50 0 -50 0 0 -890 0
-890 4000 0 4000 0 0 231 0 231 -50 -4 -50 -3 2 400 3 400 48 -3 47 -4 0 1376
0 1376 -4000 0 -4000 0 0 -710z m1050 -2047 c66 -38 66 -128 0 -166 -112 -66
-212 97 -102 166 35 21 67 21 102 0z"/>
</g>
</svg>
