<?xml version="1.0" standalone="no"?>
<!DOCTYPE svg PUBLIC "-//W3C//DTD SVG 20010904//EN"
 "http://www.w3.org/TR/2001/REC-SVG-20010904/DTD/svg10.dtd">
<svg version="1.0" xmlns="http://www.w3.org/2000/svg"
 width="1860.000000pt" height="548.000000pt" viewBox="0 0 1860.000000 548.000000"
 preserveAspectRatio="xMidYMid meet">
<metadata>
Created by potrace 1.16, written by Peter Selinger 2001-2019
</metadata>
<g transform="translate(0.000000,548.000000) scale(0.100000,-0.100000)"
fill="#000000" stroke="none">
<path d="M0 2740 l0 -2740 9300 0 9300 0 0 2740 0 2740 -9300 0 -9300 0 0
-2740z m13370 -10 l0 -2020 -4020 0 -4020 0 0 2020 0 2020 4020 0 4020 0 0
-2020z"/>
<path d="M5350 3950 l0 -780 50 0 50 0 0 -400 0 -400 -50 0 -50 0 0 -820 0
-820 4000 0 4000 0 -2 678 -3 677 -45 0 -45 0 0 400 0 400 40 2 c22 1 43 2 48
2 4 1 7 415 7 921 l0 920 -4000 0 -4000 0 0 -780z m1770 423 c108 -63 21 -224
-93 -172 -13 6 -31 23 -40 39 -53 90 43 186 133 133z"/>
</g>
</svg>
