<?xml version="1.0" standalone="no"?>
<!DOCTYPE svg PUBLIC "-//W3C//DTD SVG 20010904//EN"
 "http://www.w3.org/TR/2001/REC-SVG-20010904/DTD/svg10.dtd">
<svg version="1.0" xmlns="http://www.w3.org/2000/svg"
 width="1860.000000pt" height="548.000000pt" viewBox="0 0 1860.000000 548.000000"
 preserveAspectRatio="xMidYMid meet">
<metadata>
Created by potrace 1.16, written by Peter Selinger 2001-2019
</metadata>
<g transform="translate(0.000000,548.000000) scale(0.100000,-0.100000)"
fill="#000000" stroke="none">
<path d="M0 2740 l0 -2740 9300 0 9300 0 0 2740 0 2740 -9300 0 -9300 0 0
-2740z m13370 -10 l0 -2020 -4020 0 -4020 0 0 2020 0 2020 4020 0 4020 0 0
-2020z"/>
<path d="M5350 3988 l0 -743 50 3 50 4 0 -400 0 -401 -47 -3 -48 -3 -3 -857
-2 -858 4000 0 4000 0 0 45 0 45 -50 0 -50 0 2 398 3 397 48 3 47 3 0 1555 0
1554 -4000 0 -4000 0 0 -742z m1529 -2492 c47 -25 63 -83 37 -135 -35 -66
-131 -67 -169 -1 -53 88 39 183 132 136z"/>
</g>
</svg>
